<?xml version="1.0" encoding="UTF-8" standalone="no"?>
<svg
   xmlns:dc="http://purl.org/dc/elements/1.1/"
   xmlns:cc="http://creativecommons.org/ns#"
   xmlns:rdf="http://www.w3.org/1999/02/22-rdf-syntax-ns#"
   xmlns:svg="http://www.w3.org/2000/svg"
   xmlns="http://www.w3.org/2000/svg"
   xmlns:sodipodi="http://sodipodi.sourceforge.net/DTD/sodipodi-0.dtd"
   xmlns:inkscape="http://www.inkscape.org/namespaces/inkscape"
   viewBox="0 0 128 128"
   id="svg4431"
   version="1.1"
   inkscape:version="0.48.4 r9939"
   width="100%"
   height="100%"
   sodipodi:docname="bootstrap-plain.svg">
  <metadata
     id="metadata4439">
    <rdf:RDF>
      <cc:Work
         rdf:about="">
        <dc:format>image/svg+xml</dc:format>
        <dc:type
           rdf:resource="http://purl.org/dc/dcmitype/StillImage" />
      </cc:Work>
    </rdf:RDF>
  </metadata>
  <defs
     id="defs4437" />
  <sodipodi:namedview
     pagecolor="#ffffff"
     bordercolor="#666666"
     borderopacity="1"
     objecttolerance="10"
     gridtolerance="10"
     guidetolerance="10"
     inkscape:pageopacity="0"
     inkscape:pageshadow="2"
     inkscape:window-width="1366"
     inkscape:window-height="705"
     id="namedview4435"
     showgrid="false"
     inkscape:zoom="1.84375"
     inkscape:cx="-29.288136"
     inkscape:cy="64"
     inkscape:window-x="-8"
     inkscape:window-y="-8"
     inkscape:window-maximized="1"
     inkscape:current-layer="svg4431" />
  <path
     fill="#5B4282"
     d="M75.701 65.603c-2.334-.768-5.694-.603-10.08-.603h-17.621v23h18.844c2.944 0 5.012-.315 6.203-.535 2.099-.376 3.854-1.104 5.264-1.982 1.409-.876 2.568-2.205 3.478-3.881.908-1.676 1.363-3.637 1.363-5.83 0-2.568-.658-4.54-1.975-6.436-1.316-1.896-3.141-2.965-5.476-3.733zM73.282 55.087c2.317-.688 4.064-1.89 5.239-3.487 1.176-1.598 1.763-3.631 1.763-6.044 0-2.286-.549-4.314-1.646-6.054s-2.662-2.413-4.699-3.056c-2.037-.641-5.53-.446-10.48-.446h-15.459v20h16.587c4.042 0 6.939-.38 8.695-.913zM126 18.625c0-9.182-7.443-16.625-16.625-16.625h-91.75c-9.182 0-16.625 7.443-16.625 16.625v91.75c0 9.182 7.443 16.625 16.625 16.625h91.75c9.182 0 16.625-7.443 16.625-16.625v-91.75zm-35.447 66.12c-1.362 2.773-3.047 4.911-5.052 6.415-2.006 1.504-4.521 2.78-7.544 3.548-3.022.769-6.728 1.292-11.113 1.292h-27.844v-69h27.42c5.264 0 9.485.609 12.665 2.002 3.181 1.395 5.671 3.497 7.474 6.395 1.801 2.898 2.702 5.907 2.702 9.071 0 2.945-.8 5.708-2.397 8.308-1.598 2.602-4.011 4.694-7.237 6.292 4.166 1.222 7.37 3.304 9.61 6.248 2.24 2.945 3.36 6.422 3.36 10.432 0 3.227-.681 6.225-2.044 8.997z"
     id="path4433"
     style="fill:none" />
  <path
     style="fill:none;stroke:none;stroke-width:1.08474575999999990;stroke-linecap:round;stroke-linejoin:miter;stroke-miterlimit:4;stroke-opacity:1;stroke-dasharray:none;stroke-dashoffset:0"
     d="m 39.159322,61.664208 0,-34.22014 16.699607,0 c 18.032529,0 20.899633,0.335505 24.927272,2.916958 5.270429,3.377999 7.972346,8.182018 7.968368,14.167788 -0.002,3.045493 -0.285868,4.339931 -1.434718,6.54289 -1.411638,2.706865 -4.584739,6.027019 -6.99065,7.314623 -1.175098,0.628894 -1.084641,0.725425 1.985913,2.119288 4.233282,1.921677 7.853344,5.904723 9.169405,10.088825 2.430968,7.728679 -1.32228,17.639974 -8.121807,21.447458 -5.448147,3.050761 -7.643148,3.347032 -26.711865,3.605424 l -17.491525,0.237028 0,-34.220142 z m 37.519794,24.811014 c 3.628813,-1.701109 5.595669,-4.283819 6.36942,-8.363795 1.006742,-5.308528 -0.896871,-9.489154 -5.351223,-11.752105 l -2.935892,-1.491525 -13.462066,0 -13.462067,0 0,11.704038 0,11.704038 12.881356,-0.178615 C 73.355059,87.922039 73.65855,87.891195 76.679116,86.475222 z m -2.265557,-31.57027 c 2.459121,-1.310326 4.252487,-2.960958 5.204076,-4.789882 0.98256,-1.88845 0.978924,-6.832978 -0.0068,-9.192048 -1.932222,-4.624456 -4.613313,-5.343361 -19.927585,-5.343361 l -11.846004,0 0,10.349476 0,10.349477 12.338983,-0.181081 c 10.780069,-0.158203 12.578865,-0.308878 14.23733,-1.192581 z"
     id="path4457"
     inkscape:connector-curvature="0" />
  <path
     style="fill:#000000;stroke:none;fill-opacity:1"
     d="m 39.267797,61.613559 0,-34.169491 16.677966,0.0064 c 17.510729,0.0068 19.73009,0.242629 24.308184,2.583431 1.213568,0.620503 3.122171,2.14174 4.24134,3.380526 6.862426,7.595885 5.409301,18.871725 -3.126413,24.260085 l -2.192242,1.383901 2.7846,1.228922 c 6.572852,2.900782 10.15021,8.368891 10.093266,15.427884 -0.04651,5.765511 -1.653546,9.699385 -5.556871,13.602712 -5.509286,5.509288 -10.292479,6.465085 -32.353822,6.465085 l -14.876008,0 0,-34.169492 z m 37.519794,24.861663 c 4.343277,-2.036036 6.066429,-4.738126 6.311735,-9.897486 0.249734,-5.252519 -1.216576,-8.083284 -5.289097,-10.210795 l -2.869691,-1.499144 -13.497388,0 -13.497387,0 0,11.704038 0,11.704038 12.881356,-0.178615 C 73.463534,87.922039 73.767024,87.891195 76.787591,86.475222 z M 74.79322,54.738201 c 1.193221,-0.635068 2.684836,-1.727574 3.3147,-2.427791 3.958027,-4.400119 2.725643,-12.897019 -2.229954,-15.374817 -1.952213,-0.976107 -3.459581,-1.101879 -15.050847,-1.255822 l -12.881356,-0.171076 0,10.392082 0,10.392081 12.338983,-0.199993 C 71.613194,55.90925 72.801405,55.798307 74.79322,54.738201 z"
     id="path4967"
     inkscape:connector-curvature="0" />
  <path
     style="fill:#3c6cb4;fill-opacity:1;fill-rule:nonzero;stroke:#3c6cb4;stroke-opacity:1"
     d="m 39.267797,61.677837 0,-34.233769 6.915254,0.03708 c 3.80339,0.0204 11.918644,0.233396 18.033898,0.473334 12.969103,0.508854 14.978512,1.038954 19.101818,5.039228 7.269697,7.052784 6.708837,17.410407 -1.278645,23.613246 l -3.199809,2.484876 3.373575,1.802472 c 6.830718,3.649595 9.396169,7.794724 9.346423,15.101483 -0.02351,3.453625 -0.310411,4.960197 -1.394339,7.322035 -1.761521,3.838286 -5.704146,7.861961 -9.287145,9.478075 -4.057863,1.830297 -8.976525,2.345594 -26.288996,2.754137 l -15.322034,0.361567 0,-34.233767 z m 32.094908,26.264178 c 3.89196,-0.241475 6.325909,-1.206693 8.763075,-3.475119 2.183661,-2.032477 3.074346,-4.54866 3.073377,-8.682285 -0.0011,-4.606859 -1.124717,-6.874958 -4.535029,-9.154103 l -2.637567,-1.762711 -14.040399,0 -14.040399,0 0,11.914164 0,11.914164 9.898305,-0.264743 c 5.444068,-0.145611 11.527454,-0.365825 13.518637,-0.489367 l 0,0 z m 0.241432,-32.070449 c 3.025358,-0.36479 6.851026,-2.883533 7.973928,-5.249875 1.029849,-2.170246 1.205112,-7.139674 0.333193,-9.447399 -1.007651,-2.666971 -3.161486,-4.424643 -6.148921,-5.017928 -1.52115,-0.30209 -7.952168,-0.643894 -14.291151,-0.759565 l -11.525423,-0.210309 0,10.741489 0,10.741489 10.711864,-0.264227 c 5.891526,-0.145325 11.717455,-0.385478 12.94651,-0.533675 z"
     id="path4969"
     inkscape:connector-curvature="0" />
</svg>
