<?xml version="1.0" encoding="UTF-8" standalone="no"?>
<svg
   xmlns:dc="http://purl.org/dc/elements/1.1/"
   xmlns:cc="http://creativecommons.org/ns#"
   xmlns:rdf="http://www.w3.org/1999/02/22-rdf-syntax-ns#"
   xmlns:svg="http://www.w3.org/2000/svg"
   xmlns="http://www.w3.org/2000/svg"
   xmlns:sodipodi="http://sodipodi.sourceforge.net/DTD/sodipodi-0.dtd"
   xmlns:inkscape="http://www.inkscape.org/namespaces/inkscape"
   viewBox="0 0 128 128"
   id="svg5039"
   version="1.1"
   inkscape:version="0.48.4 r9939"
   width="100%"
   height="100%"
   sodipodi:docname="css3-plain.svg">
  <metadata
     id="metadata5047">
    <rdf:RDF>
      <cc:Work
         rdf:about="">
        <dc:format>image/svg+xml</dc:format>
        <dc:type
           rdf:resource="http://purl.org/dc/dcmitype/StillImage" />
      </cc:Work>
    </rdf:RDF>
  </metadata>
  <defs
     id="defs5045" />
  <sodipodi:namedview
     pagecolor="#ffffff"
     bordercolor="#666666"
     borderopacity="1"
     objecttolerance="10"
     gridtolerance="10"
     guidetolerance="10"
     inkscape:pageopacity="0"
     inkscape:pageshadow="2"
     inkscape:window-width="1366"
     inkscape:window-height="705"
     id="namedview5043"
     showgrid="false"
     inkscape:zoom="4.046875"
     inkscape:cx="21.498069"
     inkscape:cy="64"
     inkscape:window-x="-8"
     inkscape:window-y="-8"
     inkscape:window-maximized="1"
     inkscape:current-layer="svg5039" />
  <path
     fill="#1572B6"
     d="M8.76 1l10.055 112.883 45.118 12.58 45.244-12.626 10.063-112.837h-110.48zm89.591 25.862l-3.347 37.605.01.203-.014.467v-.004l-2.378 26.294-.262 2.336-28.36 7.844v.001l-.022.019-28.311-7.888-1.917-21.739h13.883l.985 11.054 15.386 4.17-.004.008v-.002l15.443-4.229 1.632-18.001h-32.282999999999994l-.277-3.043-.631-7.129-.331-3.828h34.748999999999995l1.264-14h-52.926l-.277-3.041-.63-7.131-.332-3.828h69.281l-.331 3.862z"
     id="path5041"
     style="fill:none" />
  <path
     style="fill:#3c6cb4;fill-opacity:1;fill-rule:nonzero;stroke:#3c6cb4;stroke-width:0.49420848000000001;stroke-linecap:round;stroke-linejoin:miter;stroke-miterlimit:4;stroke-opacity:1;stroke-dasharray:none;stroke-dashoffset:0"
     d="M 49.643243,97.524312 C 37.739913,94.184209 35.796983,93.574795 35.74516,93.165092 35.625078,92.215749 33.952124,72.936387 33.952124,72.501884 c 0,-0.419492 0.407967,-0.446286 6.795366,-0.446286 5.269344,0 6.796299,0.06936 6.799518,0.308881 0.01398,1.040052 0.970826,10.632634 1.070539,10.732348 0.06689,0.06689 3.549749,1.053916 7.739682,2.193388 l 7.618061,2.071769 7.795316,-2.129107 7.795318,-2.129107 0.694971,-7.809801 c 0.382233,-4.295389 0.753989,-8.393583 0.826126,-9.107096 l 0.131156,-1.297298 -16.171226,0 -16.171225,0 -0.550649,-6.486486 c -0.302857,-3.567568 -0.547155,-6.681081 -0.542883,-6.918919 0.0073,-0.407646 0.998422,-0.432433 17.289925,-0.432433 l 17.282154,0 0.139108,-1.050193 c 0.18236,-1.376758 1.126696,-11.879186 1.126696,-12.530559 l 0,-0.50419 -26.440154,0 c -14.542085,0 -26.440155,-0.06977 -26.440155,-0.155049 0,-0.337949 -0.987471,-11.409506 -1.115681,-12.509043 l -0.136862,-1.173745 34.479554,0 34.479553,0 0,0.665907 c 0,1.330556 -6.1054,69.7885 -6.231398,69.870734 -0.215268,0.140493 -28.281489,7.798401 -28.486749,7.772651 -0.135907,-0.017 -6.474131,-1.778327 -14.084942,-3.913938 z"
     id="path5563"
     inkscape:connector-curvature="0" />
</svg>
