<?xml version="1.0" encoding="UTF-8" standalone="no"?>
<svg
   xmlns:dc="http://purl.org/dc/elements/1.1/"
   xmlns:cc="http://creativecommons.org/ns#"
   xmlns:rdf="http://www.w3.org/1999/02/22-rdf-syntax-ns#"
   xmlns:svg="http://www.w3.org/2000/svg"
   xmlns="http://www.w3.org/2000/svg"
   xmlns:sodipodi="http://sodipodi.sourceforge.net/DTD/sodipodi-0.dtd"
   xmlns:inkscape="http://www.inkscape.org/namespaces/inkscape"
   id="Layer_1"
   data-name="Layer 1"
   viewBox="0 0 128 128"
   version="1.1"
   inkscape:version="0.48.4 r9939"
   width="100%"
   height="100%"
   sodipodi:docname="jasmine-plain.svg">
  <metadata
     id="metadata5639">
    <rdf:RDF>
      <cc:Work
         rdf:about="">
        <dc:format>image/svg+xml</dc:format>
        <dc:type
           rdf:resource="http://purl.org/dc/dcmitype/StillImage" />
        <dc:title>jasmine-plain</dc:title>
      </cc:Work>
    </rdf:RDF>
  </metadata>
  <sodipodi:namedview
     pagecolor="#ffffff"
     bordercolor="#666666"
     borderopacity="1"
     objecttolerance="10"
     gridtolerance="10"
     guidetolerance="10"
     inkscape:pageopacity="0"
     inkscape:pageshadow="2"
     inkscape:window-width="1366"
     inkscape:window-height="705"
     id="namedview5637"
     showgrid="false"
     inkscape:zoom="1.84375"
     inkscape:cx="-29.288136"
     inkscape:cy="64"
     inkscape:window-x="-8"
     inkscape:window-y="-8"
     inkscape:window-maximized="1"
     inkscape:current-layer="plain" />
  <defs
     id="defs5608">
    <style
       id="style5610">.cls-1{fill:#8a4182;}</style>
  </defs>
  <title
     id="title5612">jasmine-plain</title>
  <g
     id="plain">
    <polygon
       class="cls-1"
       points="68.49 52.7 59.05 52.7 56.5 49.42 56.5 23.7 70.88 23.7 70.88 49.42 68.49 52.7"
       id="polygon5615" />
    <polygon
       class="cls-1"
       points="55.72 55.1 52.8 64.08 48.9 65.49 24.43 57.54 28.88 43.87 53.34 51.81 55.72 55.1"
       id="polygon5617" />
    <polygon
       class="cls-1"
       points="54.04 67.74 61.68 73.29 61.81 77.43 46.7 98.25 35.06 89.8 50.19 68.98 54.04 67.74"
       id="polygon5619" />
    <polygon
       class="cls-1"
       points="65.76 73.33 73.41 67.78 77.39 68.94 92.51 89.75 80.88 98.2 65.76 77.39 65.76 73.33"
       id="polygon5621" />
    <polygon
       class="cls-1"
       points="74.84 64.23 71.92 55.24 74.25 51.81 98.71 43.87 103.16 57.54 78.69 65.49 74.84 64.23"
       id="polygon5623" />
    <path
       class="cls-1"
       d="M64,1.41A62.59,62.59,0,1,0,126.59,64,62.59,62.59,0,0,0,64,1.41Zm-.34,111.5a49.5,49.5,0,1,1,49.5-49.5A49.5,49.5,0,0,1,63.66,112.92Z"
       id="path5625"
       style="fill:#3c6cb4;fill-opacity:1" />
    <rect
       class="cls-1"
       x="61.58"
       y="82.99"
       width="3.92"
       height="19.51"
       id="rect5627" />
    <rect
       class="cls-1"
       x="90.77"
       y="62.35"
       width="3.92"
       height="19.51"
       transform="translate(-4.51 138.01) rotate(-72)"
       id="rect5629" />
    <rect
       class="cls-1"
       x="79.95"
       y="28.25"
       width="3.92"
       height="19.51"
       transform="translate(125.83 116.91) rotate(-144)"
       id="rect5631" />
    <rect
       class="cls-1"
       x="44.07"
       y="28.25"
       width="3.92"
       height="19.51"
       transform="translate(105.61 41.71) rotate(144)"
       id="rect5633" />
    <rect
       class="cls-1"
       x="32.76"
       y="62.35"
       width="3.92"
       height="19.51"
       transform="translate(92.57 16.8) rotate(72)"
       id="rect5635" />
    <path
       style="fill:#3c6cb4;fill-opacity:1;fill-rule:nonzero;stroke:#3c6cb4;stroke-width:1.08474576;stroke-linecap:round;stroke-linejoin:miter;stroke-miterlimit:4;stroke-opacity:1;stroke-dasharray:none;stroke-dashoffset:0"
       d="m 36.974437,61.384345 c -7.086473,-2.308212 -11.78956,-4.112872 -11.79661,-4.526575 -0.0064,-0.378396 0.860897,-3.387285 1.927436,-6.686418 1.467012,-4.537923 2.129761,-5.925284 2.721976,-5.698031 0.430548,0.165217 5.853079,1.924192 12.050069,3.908832 9.893386,3.168444 11.406588,3.804564 12.40994,5.216891 l 1.142686,1.608453 -1.472061,4.380929 c -1.349391,4.015859 -1.627327,4.43316 -3.335305,5.007716 -1.703055,0.572898 -2.876445,0.296766 -13.648131,-3.211797 l 0,0 z"
       id="path6149"
       inkscape:connector-curvature="0" />
    <path
       style="fill:#3c6cb4;fill-opacity:1;fill-rule:nonzero;stroke:#3c6cb4;stroke-width:1.08474576;stroke-linecap:round;stroke-linejoin:miter;stroke-miterlimit:4;stroke-opacity:1;stroke-dasharray:none;stroke-dashoffset:0"
       d=""
       id="path6151"
       inkscape:connector-curvature="0" />
    <path
       style="fill:#3c6cb4;fill-opacity:1;fill-rule:nonzero;stroke:#3c6cb4;stroke-width:1.08474576;stroke-linecap:round;stroke-linejoin:miter;stroke-miterlimit:4;stroke-opacity:1;stroke-dasharray:none;stroke-dashoffset:0"
       d="M 57.844068,50.785904 C 56.658433,49.282608 56.623729,48.88243 56.623729,36.714218 l 0,-12.524387 7.050847,0 7.050848,0 0,12.496538 c 0,12.003907 -0.04678,12.559816 -1.186744,14.101695 -1.158028,1.566316 -1.299107,1.60443 -5.830508,1.575147 -4.443825,-0.02872 -4.696308,-0.09663 -5.864104,-1.577307 z"
       id="path6157"
       inkscape:connector-curvature="0" />
    <path
       style="fill:#3c6cb4;fill-opacity:1;fill-rule:nonzero;stroke:#3c6cb4;stroke-width:1.08474576;stroke-linecap:round;stroke-linejoin:miter;stroke-miterlimit:4;stroke-opacity:1;stroke-dasharray:none;stroke-dashoffset:0"
       d="m 76.836041,64.681076 c -1.606885,-0.464948 -1.875513,-0.881222 -3.206944,-4.969584 l -1.453154,-4.46213 1.117302,-1.563664 c 0.9589,-1.341981 2.682291,-2.078372 12.156096,-5.194201 6.071337,-1.996795 11.500321,-3.70527 12.064409,-3.79661 0.861749,-0.139539 1.359659,0.826508 3.11636,6.046379 1.14991,3.416849 1.90872,6.382711 1.68625,6.590803 -0.22247,0.208093 -5.651953,2.060926 -12.065513,4.117406 -9.9217,3.181352 -11.922606,3.663366 -13.414806,3.231601 z"
       id="path6159"
       inkscape:connector-curvature="0" />
    <path
       style="fill:#3c6cb4;fill-opacity:1;fill-rule:nonzero;stroke:#3c6cb4;stroke-width:1.08474576;stroke-linecap:round;stroke-linejoin:miter;stroke-miterlimit:4;stroke-opacity:1;stroke-dasharray:none;stroke-dashoffset:0"
       d="M 73.285464,87.257297 C 64.15072,74.714645 64.17913,74.843768 69.674745,70.846595 c 5.657577,-4.114975 5.721841,-4.078274 14.875788,8.495598 4.024756,5.52841 7.203666,10.236227 7.064245,10.461815 -0.35062,0.567315 -9.238299,6.997592 -10.161398,7.351818 -0.498004,0.191102 -3.238242,-3.129737 -8.167916,-9.898529 z"
       id="path6161"
       inkscape:connector-curvature="0" />
    <path
       style="fill:#3c6cb4;fill-opacity:1;fill-rule:nonzero;stroke:#3c6cb4;stroke-width:1.08474576;stroke-linecap:round;stroke-linejoin:miter;stroke-miterlimit:4;stroke-opacity:1;stroke-dasharray:none;stroke-dashoffset:0"
       d="m 41.270747,93.94787 c -2.902337,-2.122854 -5.269572,-4.103802 -5.260522,-4.402107 0.009,-0.298305 3.2474,-4.997474 7.196334,-10.442597 8.902274,-12.275202 8.981526,-12.321579 14.368188,-8.407996 3.219258,2.338895 3.679146,2.894201 3.825478,4.619186 0.149065,1.757208 -0.521323,2.907025 -6.459556,11.079101 -3.644236,5.015124 -7.023474,9.634949 -7.509416,10.266278 -0.878655,1.141534 -0.912661,1.126564 -6.160506,-2.711865 z"
       id="path6163"
       inkscape:connector-curvature="0" />
    <path
       style="fill:#3c6cb4;fill-opacity:1;fill-rule:nonzero;stroke:#3c6cb4;stroke-width:1.08474576;stroke-linecap:round;stroke-linejoin:miter;stroke-miterlimit:4;stroke-opacity:1;stroke-dasharray:none;stroke-dashoffset:0"
       d="m 62.047458,92.8 0,-9.491525 1.627118,0 1.627119,0 0,9.491525 0,9.49153 -1.627119,0 -1.627118,0 0,-9.49153 z"
       id="path6165"
       inkscape:connector-curvature="0" />
    <path
       style="fill:#3c6cb4;fill-opacity:1;fill-rule:nonzero;stroke:#3c6cb4;stroke-width:1.08474576;stroke-linecap:round;stroke-linejoin:miter;stroke-miterlimit:4;stroke-opacity:1;stroke-dasharray:none;stroke-dashoffset:0"
       d="m 76.247919,45.50501 -1.172947,-0.976196 5.450883,-7.457628 c 2.997986,-4.101694 5.642526,-7.457627 5.876758,-7.457627 0.234231,0 0.827507,0.443799 1.31839,0.986219 0.840766,0.929035 0.621779,1.361444 -3.776787,7.457627 -2.568116,3.559275 -5.086463,6.910697 -5.596326,7.447605 -0.892664,0.940013 -0.9705,0.940013 -2.099971,0 z"
       id="path6167"
       inkscape:connector-curvature="0" />
    <path
       style="fill:#3c6cb4;fill-opacity:1;fill-rule:nonzero;stroke:#3c6cb4;stroke-width:1.08474576;stroke-linecap:round;stroke-linejoin:miter;stroke-miterlimit:4;stroke-opacity:1;stroke-dasharray:none;stroke-dashoffset:0"
       d="m 91.447216,73.492298 c -7.757713,-2.560289 -8.272085,-2.81416 -7.939041,-3.91837 0.195865,-0.649389 0.511736,-1.350965 0.701937,-1.559057 0.336168,-0.36779 16.770528,4.748773 17.548398,5.463399 0.67648,0.621486 -0.20566,2.779961 -1.13024,2.765524 -0.48724,-0.0076 -4.618718,-1.245781 -9.181054,-2.751496 l 0,0 z"
       id="path6169"
       inkscape:connector-curvature="0" />
    <path
       style="fill:#3c6cb4;fill-opacity:1;fill-rule:nonzero;stroke:#3c6cb4;stroke-width:1.08474576;stroke-linecap:round;stroke-linejoin:miter;stroke-miterlimit:4;stroke-opacity:1;stroke-dasharray:none;stroke-dashoffset:0"
       d="m 47.469056,42.777511 c -1.471182,-2.019835 -3.917658,-5.374776 -5.436613,-7.455426 -2.758664,-3.778792 -2.760533,-3.784202 -1.680597,-4.864138 0.949243,-0.949243 1.176238,-0.983987 1.860672,-0.284797 1.863347,1.903521 10.537673,14.312532 10.287694,14.717007 -0.151734,0.245511 -0.74397,0.696897 -1.31608,1.003081 -0.903017,0.48328 -1.392965,0.07238 -3.715076,-3.115727 l 0,0 z"
       id="path6171"
       inkscape:connector-curvature="0" />
    <path
       style="fill:#3c6cb4;fill-opacity:1;fill-rule:nonzero;stroke:#3c6cb4;stroke-width:1.08474576;stroke-linecap:round;stroke-linejoin:miter;stroke-miterlimit:4;stroke-opacity:1;stroke-dasharray:none;stroke-dashoffset:0"
       d="m 25.764531,75.10055 c -0.656115,-1.882134 -1.467235,-1.462413 9.617933,-4.97689 l 7.742714,-2.454774 0.527162,1.38654 c 0.289939,0.762598 0.432929,1.480774 0.317755,1.595948 -0.115173,0.115173 -4.133246,1.522778 -8.92905,3.128009 l -8.719644,2.918604 -0.55687,-1.597437 z"
       id="path6173"
       inkscape:connector-curvature="0" />
  </g>
</svg>
