<?xml version="1.0" encoding="UTF-8" standalone="no"?>
<svg
   xmlns:dc="http://purl.org/dc/elements/1.1/"
   xmlns:cc="http://creativecommons.org/ns#"
   xmlns:rdf="http://www.w3.org/1999/02/22-rdf-syntax-ns#"
   xmlns:svg="http://www.w3.org/2000/svg"
   xmlns="http://www.w3.org/2000/svg"
   xmlns:sodipodi="http://sodipodi.sourceforge.net/DTD/sodipodi-0.dtd"
   xmlns:inkscape="http://www.inkscape.org/namespaces/inkscape"
   viewBox="0 0 128 128"
   id="svg3039"
   version="1.1"
   inkscape:version="0.48.4 r9939"
   width="100%"
   height="100%"
   sodipodi:docname="javascript-plain.svg">
  <metadata
     id="metadata3047">
    <rdf:RDF>
      <cc:Work
         rdf:about="">
        <dc:format>image/svg+xml</dc:format>
        <dc:type
           rdf:resource="http://purl.org/dc/dcmitype/StillImage" />
      </cc:Work>
    </rdf:RDF>
  </metadata>
  <defs
     id="defs3045" />
  <sodipodi:namedview
     pagecolor="#ffffff"
     bordercolor="#666666"
     borderopacity="1"
     objecttolerance="10"
     gridtolerance="10"
     guidetolerance="10"
     inkscape:pageopacity="0"
     inkscape:pageshadow="2"
     inkscape:window-width="1366"
     inkscape:window-height="705"
     id="namedview3043"
     showgrid="false"
     inkscape:zoom="2.8615728"
     inkscape:cx="35.395751"
     inkscape:cy="65.330601"
     inkscape:window-x="-8"
     inkscape:window-y="-8"
     inkscape:window-maximized="1"
     inkscape:current-layer="svg3039" />
  <path
     d="M 2,2.3978327 V 127.39783 H 127 V 2.3978327 H 2 z M 68.119,108.91083 c -1.845,3.749 -5.367,6.212 -9.448,7.401 -6.271,1.44 -12.269,0.619 -16.731,-2.059 -2.986,-1.832 -5.318,-4.652 -6.901,-7.901 l 9.52,-5.83 c 0.083,0.035 0.333,0.487 0.667,1.071 1.214,2.034 2.261,3.474 4.319,4.485 2.022,0.69 6.461,1.131 8.175,-2.427 1.047,-1.81 0.714,-7.627997 0.714,-14.064997 -10e-4,-10.115 0.046,-20.188 0.046,-30.188 h 11.709 c 0,11 0.06,21.418 0,32.152 0.025,6.58 0.596,12.445997 -2.07,17.360997 z m 48.574,-3.308 c -4.07,13.922 -26.762,14.374 -35.83,5.176 -1.916,-2.165 -3.117,-3.296 -4.26,-5.795 4.819,-2.772 4.819,-2.772 9.508,-5.484997 2.547,3.914997 4.902,6.067997 9.139,6.948997 5.748,0.702 11.531,-1.273 10.234,-7.377997 -1.333,-4.986 -11.77,-6.199 -18.873,-11.531 -7.211,-4.843 -8.901,-16.611 -2.975,-23.335 1.975,-2.487 5.343,-4.343 8.877,-5.235 l 3.688,-0.477 c 7.081,-0.143 11.507,1.727 14.756,5.355 0.904,0.916 1.642,1.904 3.022,4.045 -3.772,2.404 -3.76,2.381 -9.163,5.879 -1.154,-2.486 -3.069,-4.046 -5.093,-4.724 -3.142,-0.952 -7.104,0.083 -7.926,3.403 -0.285,1.023 -0.226,1.975 0.227,3.665 1.273,2.903 5.545,4.165 9.377,5.926 11.031,4.474 14.756,9.271 15.672,14.981 0.882,4.915997 -0.213,8.104997 -0.38,8.580997 z"
     id="path3041"
     inkscape:connector-curvature="0"
     style="fill:none;fill-opacity:1;fill-rule:nonzero" />
  <path
     style="fill:#f0db4f;fill-opacity:1;fill-rule:nonzero;stroke:#000000;stroke-width:0.69891638;stroke-linecap:round;stroke-linejoin:miter;stroke-miterlimit:4;stroke-opacity:1;stroke-dasharray:none;stroke-dashoffset:0"
     d="m 47.067654,116.16144 c -2.817185,-0.77996 -5.181741,-2.03076 -7.213121,-3.8156 -1.692942,-1.48747 -4.318999,-4.96745 -4.318999,-5.72342 0,-0.30882 8.366516,-5.6524 8.850035,-5.6524 0.109185,0 0.75132,0.82559 1.426968,1.83465 1.766316,2.63794 3.261312,3.53424 6.169067,3.69854 1.956118,0.11053 2.608372,-3.5e-4 3.73901,-0.63584 2.845153,-1.59907 2.691833,-0.25666 2.804424,-24.554377 l 0.09999,-21.579043 5.753431,0 5.753431,0 -0.0122,20.530668 c -0.01314,22.133742 -0.143774,24.109902 -1.838422,27.811502 -1.527916,3.33742 -4.636135,6.11483 -8.633127,7.7143 -2.215432,0.88655 -9.89984,1.11317 -12.580494,0.37102 z"
     id="path3823"
     inkscape:connector-curvature="0" />
  <path
     style="fill:#3c6cb4;fill-opacity:1;fill-rule:nonzero;stroke:#000000;stroke-width:0.69891638000000000;stroke-linecap:round;stroke-linejoin:miter;stroke-miterlimit:4;stroke-opacity:1;stroke-dasharray:none;stroke-dashoffset:0"
     d="m 91.97303,116.17771 c -4.505088,-0.99343 -8.743343,-3.19588 -11.227331,-5.83439 -1.639118,-1.74108 -3.624642,-4.47405 -3.624642,-4.98912 0,-0.25008 1.973891,-1.59246 4.386425,-2.98307 l 4.386425,-2.528376 1.962958,2.169136 c 3.217072,3.55498 5.577316,4.65349 9.882224,4.59938 5.215811,-0.0656 8.040231,-2.26565 8.036231,-6.25988 -0.003,-2.583904 -1.79723,-4.407198 -6.466779,-6.570048 -8.188097,-3.792572 -10.05139,-4.731337 -11.949973,-6.020639 -3.5446,-2.407093 -5.431954,-5.120552 -6.54246,-9.406133 -1.449795,-5.594944 0.0322,-11.144864 3.982039,-14.912378 3.5312,-3.368193 6.923736,-4.584476 12.766213,-4.576908 4.81717,0.0062 7.89653,0.876437 10.87838,3.074123 1.87134,1.379214 5.02197,4.999889 5.02197,5.771198 0,0.264686 -8.15047,5.652214 -8.55089,5.652214 -0.0707,0 -0.48052,-0.569469 -0.91068,-1.265488 -2.77851,-4.495724 -9.836343,-4.693423 -12.100976,-0.338962 -0.624282,1.200376 -0.377403,4.007231 0.465623,5.293853 0.798734,1.219021 3.261527,2.658505 8.516423,4.977785 6.17743,2.726443 8.78629,4.283502 11.45495,6.836701 2.79373,2.67287 4.13591,5.32673 4.65106,9.196413 1.48049,11.121249 -6.41394,18.679519 -19.42586,18.598659 -1.92202,-0.0119 -4.438118,-0.22977 -5.59133,-0.48407 z"
     id="path3825"
     inkscape:connector-curvature="0" />
  <path
     style="fill:#3c6cb4;fill-opacity:1;fill-rule:nonzero;stroke:none;stroke-width:0.69891638000000000;stroke-linecap:round;stroke-linejoin:miter;stroke-miterlimit:4;stroke-opacity:1;stroke-dasharray:none;stroke-dashoffset:0"
     d="m 46.747106,115.46094 c -2.669228,-0.74474 -5.154694,-2.26711 -7.22357,-4.42451 -1.960926,-2.04484 -3.289086,-3.72014 -3.289086,-4.14876 0,-0.15309 1.769132,-1.39842 3.931405,-2.76739 l 3.931404,-2.48905 0.805684,0.97986 c 3.034196,3.69014 4.109381,4.29971 7.58401,4.29971 1.628894,0 2.706674,-0.20919 3.706969,-0.7195 2.596488,-1.32463 2.515111,-0.60372 2.778677,-24.616214 0.128688,-11.724322 0.254703,-21.356263 0.280034,-21.404313 0.02533,-0.04805 2.378487,-0.08736 5.229236,-0.08736 l 5.183178,0 -0.129266,20.006481 c -0.0711,11.003564 -0.280622,21.264536 -0.46561,22.802146 -0.638531,5.30742 -3.690225,9.47958 -8.632762,11.80236 -2.241007,1.05317 -2.603149,1.11468 -7.079508,1.20234 -3.386006,0.0663 -5.252061,-0.0567 -6.610795,-0.4358 z"
     id="path3827"
     inkscape:connector-curvature="0" />
  <path
     style="fill:#3c6cb4;fill-opacity:1;fill-rule:nonzero;stroke:none"
     d="m 90.985164,115.31153 c -4.945806,-1.3333 -8.668769,-3.74269 -11.583836,-7.49672 -1.292585,-1.66459 -1.510444,-2.14094 -1.167928,-2.55364 0.231582,-0.27904 1.987942,-1.43374 3.903022,-2.56601 l 3.481964,-2.05865 2.484114,2.35966 c 1.366262,1.29782 3.0937,2.64894 3.83875,3.00249 2.777662,1.31808 8.51812,1.3476 10.99898,0.0566 2.09066,-1.08798 3.18586,-2.95431 3.18586,-5.42904 0,-3.599091 -1.3188,-4.782262 -9.950325,-8.92701 -6.915224,-3.320604 -9.198523,-4.686932 -11.131731,-6.661235 -3.335333,-3.406233 -4.979127,-9.829941 -3.715901,-14.521204 1.467469,-5.449764 6.393278,-9.861228 12.042729,-10.785248 7.323878,-1.197887 12.920198,0.43286 17.144938,4.995974 1.2375,1.336608 2.24999,2.529938 2.24999,2.651845 0,0.121906 -1.6905,1.348724 -3.75667,2.726262 l -3.75668,2.504614 -1.39783,-1.498713 c -1.79405,-1.923527 -3.29125,-2.673055 -5.79252,-2.899863 -3.87052,-0.350966 -6.962706,2.132933 -6.962706,5.593021 0,3.756389 1.231734,4.881001 9.550576,8.719972 10.44965,4.822297 14.1404,8.204606 15.46896,14.176212 0.71853,3.229664 0.51413,6.761263 -0.55624,9.610533 -1.56422,4.16386 -6.13551,7.74296 -11.69413,9.15594 -2.97886,0.75721 -9.802802,0.67471 -12.883386,-0.15575 l 0,0 z"
     id="path3829"
     inkscape:connector-curvature="0" />
</svg>
