<?xml version="1.0" encoding="UTF-8" standalone="no"?>
<svg
   xmlns:dc="http://purl.org/dc/elements/1.1/"
   xmlns:cc="http://creativecommons.org/ns#"
   xmlns:rdf="http://www.w3.org/1999/02/22-rdf-syntax-ns#"
   xmlns:svg="http://www.w3.org/2000/svg"
   xmlns="http://www.w3.org/2000/svg"
   xmlns:sodipodi="http://sodipodi.sourceforge.net/DTD/sodipodi-0.dtd"
   xmlns:inkscape="http://www.inkscape.org/namespaces/inkscape"
   viewBox="0 0 128 128"
   enable-background="new 0 0 128 128"
   id="svg3881"
   version="1.1"
   inkscape:version="0.48.4 r9939"
   width="100%"
   height="100%"
   sodipodi:docname="react-original.svg">
  <metadata
     id="metadata3893">
    <rdf:RDF>
      <cc:Work
         rdf:about="">
        <dc:format>image/svg+xml</dc:format>
        <dc:type
           rdf:resource="http://purl.org/dc/dcmitype/StillImage" />
        <dc:title></dc:title>
      </cc:Work>
    </rdf:RDF>
  </metadata>
  <defs
     id="defs3891" />
  <sodipodi:namedview
     pagecolor="#ffffff"
     bordercolor="#666666"
     borderopacity="1"
     objecttolerance="10"
     gridtolerance="10"
     guidetolerance="10"
     inkscape:pageopacity="0"
     inkscape:pageshadow="2"
     inkscape:window-width="1366"
     inkscape:window-height="705"
     id="namedview3889"
     showgrid="false"
     inkscape:zoom="1.84375"
     inkscape:cx="-29.288136"
     inkscape:cy="64"
     inkscape:window-x="-8"
     inkscape:window-y="-8"
     inkscape:window-maximized="1"
     inkscape:current-layer="g3883" />
  <g
     fill="#61DAFB"
     id="g3883">
    <circle
       cx="64"
       cy="64"
       r="11.4"
       id="circle3885"
       style="fill:#3c6c00;fill-opacity:1" />
    <path
       d="M107.3 45.2c-2.2-.8-4.5-1.6-6.9-2.3.6-2.4 1.1-4.8 1.5-7.1 2.1-13.2-.2-22.5-6.6-26.1-1.9-1.1-4-1.6-6.4-1.6-7 0-15.9 5.2-24.9 13.9-9-8.7-17.9-13.9-24.9-13.9-2.4 0-4.5.5-6.4 1.6-6.4 3.7-8.7 13-6.6 26.1.4 2.3.9 4.7 1.5 7.1-2.4.7-4.7 1.4-6.9 2.3-12.5 4.8-19.3 11.4-19.3 18.8s6.9 14 19.3 18.8c2.2.8 4.5 1.6 6.9 2.3-.6 2.4-1.1 4.8-1.5 7.1-2.1 13.2.2 22.5 6.6 26.1 1.9 1.1 4 1.6 6.4 1.6 7.1 0 16-5.2 24.9-13.9 9 8.7 17.9 13.9 24.9 13.9 2.4 0 4.5-.5 6.4-1.6 6.4-3.7 8.7-13 6.6-26.1-.4-2.3-.9-4.7-1.5-7.1 2.4-.7 4.7-1.4 6.9-2.3 12.5-4.8 19.3-11.4 19.3-18.8s-6.8-14-19.3-18.8zm-14.8-30.5c4.1 2.4 5.5 9.8 3.8 20.3-.3 2.1-.8 4.3-1.4 6.6-5.2-1.2-10.7-2-16.5-2.5-3.4-4.8-6.9-9.1-10.4-13 7.4-7.3 14.9-12.3 21-12.3 1.3 0 2.5.3 3.5.9zm-11.2 59.3c-1.8 3.2-3.9 6.4-6.1 9.6-3.7.3-7.4.4-11.2.4-3.9 0-7.6-.1-11.2-.4-2.2-3.2-4.2-6.4-6-9.6-1.9-3.3-3.7-6.7-5.3-10 1.6-3.3 3.4-6.7 5.3-10 1.8-3.2 3.9-6.4 6.1-9.6 3.7-.3 7.4-.4 11.2-.4 3.9 0 7.6.1 11.2.4 2.2 3.2 4.2 6.4 6 9.6 1.9 3.3 3.7 6.7 5.3 10-1.7 3.3-3.4 6.6-5.3 10zm8.3-3.3c1.5 3.5 2.7 6.9 3.8 10.3-3.4.8-7 1.4-10.8 1.9 1.2-1.9 2.5-3.9 3.6-6 1.2-2.1 2.3-4.2 3.4-6.2zm-25.6 27.1c-2.4-2.6-4.7-5.4-6.9-8.3 2.3.1 4.6.2 6.9.2 2.3 0 4.6-.1 6.9-.2-2.2 2.9-4.5 5.7-6.9 8.3zm-18.6-15c-3.8-.5-7.4-1.1-10.8-1.9 1.1-3.3 2.3-6.8 3.8-10.3 1.1 2 2.2 4.1 3.4 6.1 1.2 2.2 2.4 4.1 3.6 6.1zm-7-25.5c-1.5-3.5-2.7-6.9-3.8-10.3 3.4-.8 7-1.4 10.8-1.9-1.2 1.9-2.5 3.9-3.6 6-1.2 2.1-2.3 4.2-3.4 6.2zm25.6-27.1c2.4 2.6 4.7 5.4 6.9 8.3-2.3-.1-4.6-.2-6.9-.2-2.3 0-4.6.1-6.9.2 2.2-2.9 4.5-5.7 6.9-8.3zm22.2 21l-3.6-6c3.8.5 7.4 1.1 10.8 1.9-1.1 3.3-2.3 6.8-3.8 10.3-1.1-2.1-2.2-4.2-3.4-6.2zm-54.5-16.2c-1.7-10.5-.3-17.9 3.8-20.3 1-.6 2.2-.9 3.5-.9 6 0 13.5 4.9 21 12.3-3.5 3.8-7 8.2-10.4 13-5.8.5-11.3 1.4-16.5 2.5-.6-2.3-1-4.5-1.4-6.6zm-24.7 29c0-4.7 5.7-9.7 15.7-13.4 2-.8 4.2-1.5 6.4-2.1 1.6 5 3.6 10.3 6 15.6-2.4 5.3-4.5 10.5-6 15.5-13.8-4-22.1-10-22.1-15.6zm28.5 49.3c-4.1-2.4-5.5-9.8-3.8-20.3.3-2.1.8-4.3 1.4-6.6 5.2 1.2 10.7 2 16.5 2.5 3.4 4.8 6.9 9.1 10.4 13-7.4 7.3-14.9 12.3-21 12.3-1.3 0-2.5-.3-3.5-.9zm60.8-20.3c1.7 10.5.3 17.9-3.8 20.3-1 .6-2.2.9-3.5.9-6 0-13.5-4.9-21-12.3 3.5-3.8 7-8.2 10.4-13 5.8-.5 11.3-1.4 16.5-2.5.6 2.3 1 4.5 1.4 6.6zm9-15.6c-2 .8-4.2 1.5-6.4 2.1-1.6-5-3.6-10.3-6-15.6 2.4-5.3 4.5-10.5 6-15.5 13.8 4 22.1 10 22.1 15.6 0 4.7-5.8 9.7-15.7 13.4z"
       id="path3887" />
    <path
       style="fill:#3c6cb4;fill-opacity:1;fill-rule:nonzero;stroke:none"
       d="M 34.663622,118.81245 C 31.575531,117.63479 28.604736,114.496 27.261355,110.9916 25.619811,106.70941 25.310371,98.680488 26.528882,91.986441 27.936526,84.253375 28.219447,84.98957 23.18573,83.287165 13.344465,79.958845 5.2992018,74.327094 2.9309977,69.108686 -1.3964071,59.573125 6.7430904,50.101665 24.264504,44.284127 c 3.296855,-1.094636 3.672696,-1.36015 3.385413,-2.39163 -1.282162,-4.603554 -2.03261,-11.455055 -1.790468,-16.346734 0.422724,-8.539685 2.714673,-13.271384 7.610056,-15.7108562 6.618787,-3.2982807 15.492219,-0.3583466 25.982894,8.6086192 2.301532,1.967247 4.376108,3.575716 4.610169,3.574375 0.234061,-0.0014 1.889974,-1.307644 3.679805,-2.902896 15.98458,-14.2468411 29.995536,-14.1064574 33.709937,0.337759 0.67331,2.618304 0.79998,4.91072 0.56145,10.160795 -0.16941,3.728814 -0.54304,7.633899 -0.83029,8.677966 -1.398244,5.082274 -1.709577,4.557702 3.85323,6.492369 6.95144,2.417617 11.97967,5.170149 15.64692,8.565377 3.86099,3.574598 5.44132,6.660899 5.44132,10.626626 0,7.579807 -7.0143,14.093397 -20.57095,19.10253 -3.83128,1.415648 -5.49299,2.283233 -5.30607,2.770338 1.15816,3.01812 2.03174,10.863669 1.83085,16.442765 -0.18887,5.2451 -0.44444,6.71181 -1.60667,9.22033 -2.651989,5.72403 -5.854706,7.83785 -11.899316,7.85365 -3.826956,0.01 -4.480158,-0.16907 -9.220339,-2.52763 -3.114116,-1.54947 -6.897627,-4.04792 -9.711767,-6.41317 -2.535593,-2.13115 -4.918183,-4.00594 -5.294639,-4.16622 -0.376461,-0.16027 -2.206969,1.04301 -4.067796,2.67396 -9.937716,8.71004 -19.256839,12.30459 -25.614621,9.88 l 0,0 z m 9.958976,-5.59738 c 2.96255,-1.12568 9.302628,-5.4094 13.210405,-8.92571 l 2.565207,-2.30824 -3.409155,-4.084209 c -1.875032,-2.246318 -4.22303,-5.217518 -5.217769,-6.602668 -1.595859,-2.222194 -2.102707,-2.555509 -4.308596,-2.833443 -1.374988,-0.173239 -5.184724,-0.762723 -8.46608,-1.309955 -3.281356,-0.547238 -6.005373,-0.964453 -6.053372,-0.927149 -0.584251,0.454091 -1.921893,10.0016 -1.985203,14.169524 -0.109153,7.18591 1.613666,12.04336 4.71578,13.29603 1.980805,0.79988 6.181554,0.57728 8.948783,-0.47418 l 0,0 z m 48.801906,-0.3627 c 2.666387,-2.24362 3.614677,-5.5719 3.549836,-12.45915 -0.06666,-7.080656 -1.524067,-14.610988 -2.737665,-14.145291 -0.424276,0.16281 -4.226093,0.800727 -8.448477,1.417595 -5.6857,0.83065 -7.848765,1.360656 -8.339016,2.043281 -1.464699,2.039453 -5.490918,7.181364 -7.488716,9.563884 l -2.120889,2.529321 2.392076,2.43858 c 2.734367,2.78753 10.027232,7.77878 13.239533,9.06116 1.193221,0.47635 3.554154,0.87866 5.24652,0.89403 2.524501,0.0229 3.369681,-0.2183 4.706798,-1.34341 z M 70.17568,90.912043 l 1.165982,-1.637467 -7.087783,0 c -3.898278,0 -7.087777,0.160011 -7.087777,0.355585 0,0.469364 2.492935,3.728472 4.860664,6.354528 l 1.893375,2.099948 2.544781,-2.767566 c 1.399631,-1.522158 3.069473,-3.504423 3.710758,-4.405028 z m 3.093169,-7.058391 c 2.271669,-0.0027 2.27296,-0.0038 5.192314,-4.748567 1.606048,-2.61017 4.171515,-7.072369 5.701039,-9.916003 l 2.780952,-5.17024 -2.73881,-5.134845 c -1.506343,-2.824165 -4.056553,-7.2351 -5.667124,-9.802079 L 75.6089,44.414684 71.94682,44.068825 c -4.652306,-0.43938 -11.318888,-0.442323 -15.926817,-0.007 l -3.586782,0.338828 -3.255046,5.216638 c -1.790275,2.869149 -4.291443,7.278643 -5.558151,9.798874 l -2.303104,4.582237 1.460992,3.010983 c 0.803546,1.656038 3.317796,6.113416 5.587222,9.90528 l 4.12623,6.894302 4.100083,0.21913 c 2.25504,0.120526 6.418722,0.131216 9.252621,0.02376 2.833898,-0.107455 6.175051,-0.196632 7.424781,-0.198178 l 0,6e-6 z m 14.888005,-1.646536 c 2.278812,-0.362256 4.458897,-0.8537 4.844627,-1.092095 0.547606,-0.338441 0.298288,-1.51271 -1.137448,-5.357283 -1.011331,-2.708111 -2.006341,-4.92384 -2.211135,-4.92384 -0.387238,0 -6.591697,10.607181 -6.899081,11.794707 -0.09625,0.371834 0.147818,0.577312 0.542373,0.456613 0.394554,-0.1207 2.581852,-0.515846 4.860664,-0.878102 l 0,0 z m -46.07046,-5.704743 c -2.829295,-4.978858 -3.662317,-6.079902 -4.060966,-5.367555 -0.806169,1.440542 -3.69805,9.583522 -3.480672,9.8009 0.396862,0.39686 7.215827,1.722907 9.132398,1.775924 l 1.968679,0.05446 -3.559439,-6.263729 z M 30.783423,75.514772 c 0.780448,-2.1984 2.133797,-5.672668 3.007442,-7.720586 1.516889,-3.555759 1.551191,-3.809378 0.761457,-5.630026 -0.454845,-1.048593 -1.84211,-4.615099 -3.082813,-7.925569 l -2.255824,-6.019035 -4.328876,1.45213 C 13.896624,53.357695 6.7254237,58.928665 6.7254237,63.778864 c 0,3.429418 3.4992723,7.552846 9.0383193,10.650457 3.479646,1.945931 11.189661,5.010196 12.721859,5.056173 0.610681,0.01833 1.311781,-1.193204 2.297821,-3.970722 l 0,0 z m 73.130017,2.582259 c 4.99425,-1.782314 10.45413,-4.611206 13.08454,-6.779417 2.29745,-1.893744 4.16812,-5.167962 4.16812,-7.295393 0,-5.064805 -6.6665,-10.492867 -17.56961,-14.305695 -2.65312,-0.927798 -4.877634,-1.62035 -4.94337,-1.539004 -0.06574,0.08135 -0.667797,1.816795 -1.337915,3.856554 -0.670123,2.039759 -2.014161,5.53867 -2.98676,7.775359 l -1.768364,4.066709 1.736716,4.156843 c 0.955189,2.286265 2.311257,5.804301 3.013478,7.81786 0.702221,2.01356 1.583187,3.661017 1.957701,3.661017 0.374513,0 2.464974,-0.636675 4.645464,-1.414833 l 0,0 z M 42.317751,50.901614 c 1.864362,-3.194841 3.324209,-5.874343 3.244103,-5.954449 -0.273497,-0.273497 -10.360592,1.582557 -10.787888,1.985003 -0.357957,0.337138 2.225792,8.324216 3.205729,9.909787 0.436901,0.70692 0.547002,0.556153 4.338056,-5.940341 l 0,0 z m 49.520584,1.438078 c 1.510948,-4.077338 1.696846,-5.018389 1.069776,-5.415424 -0.417426,-0.264296 -0.880992,-0.489156 -1.030145,-0.499688 -0.149152,-0.01053 -2.296493,-0.34844 -4.771867,-0.750907 -3.221586,-0.523793 -4.454725,-0.559247 -4.338983,-0.12475 0.303973,1.141101 6.512586,11.725653 6.877955,11.725653 0.200488,0 1.187461,-2.220698 2.193264,-4.934884 l 0,0 z M 39.267797,40.773132 c 2.535593,-0.423041 5.954829,-0.920621 7.598301,-1.105733 2.604832,-0.293396 3.147371,-0.568964 4.229535,-2.148279 0.682772,-0.996441 3.057861,-3.976047 5.277975,-6.621348 l 4.036567,-4.809636 -2.571189,-2.328143 C 46.235444,13.253306 36.705259,10.780795 32.767748,17.255512 c -2.314003,3.805073 -2.527885,12.314493 -0.538959,21.442793 0.711106,3.263668 0.422788,3.178683 7.039008,2.074827 z M 95.319485,40.59661 c 1.20096,-4.377853 1.635612,-7.800165 1.670438,-13.152542 0.03658,-5.621407 -0.0933,-6.502279 -1.315347,-8.920964 -0.745762,-1.476022 -2.025752,-3.170112 -2.844415,-3.764645 -3.101038,-2.252041 -9.78048,-0.743674 -15.93933,3.599456 -3.460973,2.440627 -8.877272,7.128356 -8.877272,7.683155 0,0.351436 6.95091,9.223021 9.220339,11.768099 1.230297,1.37973 1.958167,1.601527 7.855512,2.393727 3.574769,0.480205 6.605277,0.978797 6.734465,1.107983 0.674506,0.674506 3.259531,0.146299 3.49561,-0.714269 z M 69.823192,36.759152 c -0.846145,-1.141111 -2.446671,-3.129372 -3.556724,-4.418359 -1.794273,-2.083504 -2.12019,-2.259558 -2.936559,-1.58627 -1.427959,1.177685 -6.163807,6.990241 -6.163807,7.56516 0,0.297843 2.986614,0.514215 7.097768,0.514215 l 7.097768,0 -1.538446,-2.074746 z"
       id="path4409"
       inkscape:connector-curvature="0" />
    <path
       style="fill:#3c6cb4;fill-opacity:1;fill-rule:nonzero;stroke:#3c6cb4;stroke-opacity:1"
       d="m 60.149153,74.35783 c -4.06838,-1.439154 -7.309914,-6.190413 -7.31901,-10.727793 -0.0073,-3.650481 2.976689,-7.90686 6.776637,-9.666179 8.847013,-4.096033 18.525395,5.582349 14.429362,14.429362 -2.554551,5.517569 -8.243388,7.960985 -13.886989,5.96461 z"
       id="path4411"
       inkscape:connector-curvature="0" />
  </g>
</svg>
