<?xml version="1.0" encoding="UTF-8" standalone="no"?>
<svg
   xmlns:dc="http://purl.org/dc/elements/1.1/"
   xmlns:cc="http://creativecommons.org/ns#"
   xmlns:rdf="http://www.w3.org/1999/02/22-rdf-syntax-ns#"
   xmlns:svg="http://www.w3.org/2000/svg"
   xmlns="http://www.w3.org/2000/svg"
   xmlns:sodipodi="http://sodipodi.sourceforge.net/DTD/sodipodi-0.dtd"
   xmlns:inkscape="http://www.inkscape.org/namespaces/inkscape"
   enable-background="new 0 0 144 144"
   id="Layer_1"
   version="1.1"
   viewBox="0 0 144 144"
   xml:space="preserve"
   inkscape:version="0.48.4 r9939"
   width="100%"
   height="100%"
   sodipodi:docname="if_Web_Design_1016081.svg"><metadata
     id="metadata4101"><rdf:RDF><cc:Work
         rdf:about=""><dc:format>image/svg+xml</dc:format><dc:type
           rdf:resource="http://purl.org/dc/dcmitype/StillImage" /><dc:title></dc:title></cc:Work></rdf:RDF></metadata><defs
     id="defs4099" /><sodipodi:namedview
     pagecolor="#ffffff"
     bordercolor="#666666"
     borderopacity="1"
     objecttolerance="10"
     gridtolerance="10"
     guidetolerance="10"
     inkscape:pageopacity="0"
     inkscape:pageshadow="2"
     inkscape:window-width="1366"
     inkscape:window-height="705"
     id="namedview4097"
     showgrid="false"
     inkscape:zoom="2.5436202"
     inkscape:cx="3.1867021"
     inkscape:cy="71.309111"
     inkscape:window-x="-8"
     inkscape:window-y="-8"
     inkscape:window-maximized="1"
     inkscape:current-layer="g4021" /><g
     id="g4021"><rect
       height="5.003"
       width="20.998"
       x="46.961"
       y="104.861"
       id="rect4023"
       fill="#528AC8"
       opacity="0.3" /><path
       d="M91.732,104.989   H15.683c-6.623,0-12.042-5.419-12.042-12.042v-58.82c0-6.623,5.419-12.042,12.042-12.042h83.771   c6.623,0,12.042,5.419,12.042,12.042v22.536"
       stroke-miterlimit="10"
       id="path4025"
       stroke-linejoin="round"
       stroke-linecap="round"
       stroke="#3D6CB4"
       fill="none" /><path
       d="M91.732,87.74   H15.762c-3.558,0-6.469-2.911-6.469-6.469V34.467c0-3.558,2.911-6.47,6.47-6.47h83.613c3.558,0,6.469,2.911,6.469,6.469v21.675"
       stroke-miterlimit="10"
       id="path4027"
       stroke-linejoin="round"
       stroke-linecap="round"
       stroke="#3D6CB4"
       fill="none" /><path
       d="M9.292,36.519v-2.052c0-3.558,2.911-6.47,6.47-6.47h83.613c3.558,0,6.469,2.911,6.469,6.469   v2.053H9.292z"
       id="path4029"
       fill="#528AC8"
       opacity="0.3" /><path
       d="M9.292,36.519   v-2.052c0-3.558,2.911-6.47,6.47-6.47h83.613c3.558,0,6.469,2.911,6.469,6.469v2.053H9.292z"
       stroke-miterlimit="10"
       id="path4031"
       stroke-linejoin="round"
       stroke-linecap="round"
       stroke="#3D6CB4"
       fill="none" /><circle
       cx="57.569"
       cy="96.613"
       r="3.605"
       id="circle4033"
       fill="#528AC8"
       opacity="0.3" /><circle
       cx="57.569"
       cy="96.613"
       r="3.605"
       stroke-miterlimit="10"
       id="circle4035"
       stroke-linejoin="round"
       stroke-linecap="round"
       stroke="#3D6CB4"
       fill="none" /><path
       d="M68.111,105.247   c0,0-1.904,12.308,7.468,12.308c-11.421,0-18.743,0-18.743,0h1.171c0,0-7.028,0-18.45,0c9.371,0,7.321-12.18,7.321-12.18"
       stroke-miterlimit="10"
       id="path4037"
       stroke-linejoin="round"
       stroke-linecap="round"
       stroke="#3D6CB4"
       fill="none" /><rect
       height="13.434"
       stroke-miterlimit="10"
       width="35.955"
       x="16.538"
       y="42.927"
       id="rect4039"
       stroke-linejoin="round"
       stroke-linecap="round"
       stroke="#3D6CB4"
       fill="none" /><g
       id="g4041"><line
         stroke-miterlimit="10"
         x1="58.36"
         x2="88.36"
         y1="44.555"
         y2="44.555"
         id="line4043"
         stroke-linejoin="round"
         stroke-linecap="round"
         stroke="#3D6CB4"
         fill="none" /><line
         stroke-miterlimit="10"
         x1="58.36"
         x2="93.36"
         y1="50.555"
         y2="50.555"
         id="line4045"
         stroke-linejoin="round"
         stroke-linecap="round"
         stroke="#3D6CB4"
         fill="none" /><line
         stroke-miterlimit="10"
         x1="58.36"
         x2="88.36"
         y1="54.555"
         y2="54.555"
         id="line4047"
         stroke-linejoin="round"
         stroke-linecap="round"
         stroke="#3D6CB4"
         fill="none" /></g><rect
       height="17.978"
       width="17.978"
       x="16.538"
       y="63.77"
       id="rect4049"
       fill="#528AC8"
       opacity="0.3" /><rect
       height="17.978"
       stroke-miterlimit="10"
       width="17.978"
       x="16.538"
       y="63.77"
       id="rect4051"
       stroke-linejoin="round"
       stroke-linecap="round"
       stroke="#3D6CB4"
       fill="none" /><rect
       height="17.978"
       stroke-miterlimit="10"
       width="17.978"
       x="41.035"
       y="63.77"
       id="rect4053"
       stroke-linejoin="round"
       stroke-linecap="round"
       stroke="#3D6CB4"
       fill="none" /><rect
       height="17.978"
       stroke-miterlimit="10"
       width="17.978"
       x="65.532"
       y="63.77"
       id="rect4055"
       stroke-linejoin="round"
       stroke-linecap="round"
       stroke="#3D6CB4"
       fill="none" /><path
       d="M134.727,124.88   H96.596c-2.652,0-4.822-2.17-4.822-4.822V61.48c0-2.652,2.17-4.822,4.822-4.822h38.131c2.652,0,4.822,2.17,4.822,4.822v58.578   C139.549,122.71,137.379,124.88,134.727,124.88z"
       stroke-miterlimit="10"
       id="path4057"
       stroke-linejoin="round"
       stroke-linecap="round"
       stroke="#3D6CB4"
       fill="none" /><path
       d="M133.102,113.904   h-34.88c-1.717,0-3.11-1.392-3.11-3.11V63.66c0-1.717,1.392-3.11,3.11-3.11h34.88c1.717,0,3.11,1.392,3.11,3.11v47.134   C136.211,112.512,134.819,113.904,133.102,113.904z"
       stroke-miterlimit="10"
       id="path4059"
       stroke-linejoin="round"
       stroke-linecap="round"
       stroke="#3D6CB4"
       fill="none" /><circle
       cx="117.456"
       cy="119.246"
       r="2.206"
       id="circle4061"
       fill="#528AC8"
       opacity="0.3" /><circle
       cx="117.456"
       cy="119.246"
       r="2.206"
       stroke-miterlimit="10"
       id="circle4063"
       stroke-linejoin="round"
       stroke-linecap="round"
       stroke="#3D6CB4"
       fill="none" /><rect
       height="25.649"
       width="30.596"
       x="100.96"
       y="65.646"
       id="rect4065"
       fill="#528AC8"
       opacity="0.3" /><rect
       height="25.649"
       stroke-miterlimit="10"
       width="31.238"
       x="100.318"
       y="65.646"
       id="rect4067"
       stroke-linejoin="round"
       stroke-linecap="round"
       stroke="#3D6CB4"
       fill="none" /><line
       stroke-miterlimit="10"
       x1="101.36"
       x2="125.36"
       y1="98.555"
       y2="98.555"
       id="line4069"
       stroke-linejoin="round"
       stroke-linecap="round"
       stroke="#3D6CB4"
       fill="none" /><line
       stroke-miterlimit="10"
       x1="101.36"
       x2="121.36"
       y1="102.555"
       y2="102.555"
       id="line4071"
       stroke-linejoin="round"
       stroke-linecap="round"
       stroke="#3D6CB4"
       fill="none" /><g
       id="g4073"><line
         stroke-miterlimit="10"
         x1="125.538"
         x2="125.538"
         y1="40.51"
         y2="46.741"
         id="line4075"
         stroke-linejoin="round"
         stroke-linecap="round"
         stroke="#3D6CB4"
         fill="none" /><line
         stroke-miterlimit="10"
         x1="128.654"
         x2="122.423"
         y1="43.625"
         y2="43.625"
         id="line4077"
         stroke-linejoin="round"
         stroke-linecap="round"
         stroke="#3D6CB4"
         fill="none" /></g><g
       id="g4079"><line
         stroke-miterlimit="10"
         x1="135.663"
         x2="135.663"
         y1="18.369"
         y2="28.777"
         id="line4081"
         stroke-linejoin="round"
         stroke-linecap="round"
         stroke="#3D6CB4"
         fill="none" /><line
         stroke-miterlimit="10"
         x1="140.867"
         x2="130.46"
         y1="23.573"
         y2="23.573"
         id="line4083"
         stroke-linejoin="round"
         stroke-linecap="round"
         stroke="#3D6CB4"
         fill="none" /></g></g><g
     id="g4085" /><g
     id="g4087" /><g
     id="g4089" /><g
     id="g4091" /><g
     id="g4093" /><g
     id="g4095" /></svg>